<svg width="24" height="24" viewBox="0 0 24 24" fill="none" xmlns="http://www.w3.org/2000/svg">
<path fill-rule="evenodd" clip-rule="evenodd" d="M11 20C11 19.7348 10.8946 19.4804 10.7071 19.2929C10.5196 19.1054 10.2652 19 10 19H5V5H10C10.2652 5 10.5196 4.89464 10.7071 4.70711C10.8946 4.51957 11 4.26522 11 4C11 3.73478 10.8946 3.48043 10.7071 3.29289C10.5196 3.10536 10.2652 3 10 3H5C4.46957 3 3.96086 3.21071 3.58579 3.58579C3.21071 3.96086 3 4.46957 3 5V19C3 19.5304 3.21071 20.0391 3.58579 20.4142C3.96086 20.7893 4.46957 21 5 21H10C10.2652 21 10.5196 20.8946 10.7071 20.7071C10.8946 20.5196 11 20.2652 11 20Z" fill="#ED0909"/>
<path d="M21.714 12.6996C21.8966 12.5134 21.9992 12.2633 22 12.0026V11.9966C21.9991 11.7324 21.8938 11.4794 21.707 11.2926L17.707 7.29259C17.6148 7.19708 17.5044 7.1209 17.3824 7.06849C17.2604 7.01608 17.1292 6.9885 16.9964 6.98734C16.8636 6.98619 16.7319 7.01149 16.609 7.06177C16.4862 7.11205 16.3745 7.18631 16.2806 7.2802C16.1867 7.37409 16.1125 7.48574 16.0622 7.60864C16.0119 7.73154 15.9866 7.86321 15.9877 7.99599C15.9889 8.12877 16.0165 8.25999 16.0689 8.382C16.1213 8.504 16.1975 8.61435 16.293 8.70659L18.586 10.9996H9C8.73478 10.9996 8.48043 11.1049 8.29289 11.2925C8.10536 11.48 8 11.7344 8 11.9996C8 12.2648 8.10536 12.5192 8.29289 12.7067C8.48043 12.8942 8.73478 12.9996 9 12.9996H18.586L16.293 15.2926C16.1108 15.4812 16.01 15.7338 16.0123 15.996C16.0146 16.2582 16.1198 16.509 16.3052 16.6944C16.4906 16.8798 16.7414 16.985 17.0036 16.9873C17.2658 16.9895 17.5184 16.8888 17.707 16.7066L21.707 12.7066L21.714 12.6996Z" fill="#ED0909"/>
</svg>
